<svg id="Layer_1" data-name="Layer 1" xmlns="http://www.w3.org/2000/svg" xmlns:xlink="http://www.w3.org/1999/xlink" viewBox="0 0 184.69 165.15"><defs><style>.cls-1{fill:none;stroke:#000;stroke-miterlimit:10;}.cls-2{fill:#fcee21;}.cls-3{opacity:0.8;isolation:isolate;fill:url(#linear-gradient);}.cls-4{fill:url(#linear-gradient-2);}.cls-5{fill:#8cc63f;}.cls-6{fill:#39b54a;}.cls-7{fill:#d9e021;}.cls-8{fill:url(#linear-gradient-3);}.cls-9{fill:url(#linear-gradient-4);}.cls-10{fill:url(#linear-gradient-5);}</style><linearGradient id="linear-gradient" x1="173.14" y1="138.76" x2="299.75" y2="138.76" gradientUnits="userSpaceOnUse"><stop offset="0.09" stop-color="#fffedb" stop-opacity="0.8"/><stop offset="0.35" stop-color="#ffeb46"/><stop offset="0.61" stop-color="#d3ce00" stop-opacity="0.9"/><stop offset="1" stop-color="#c1b700" stop-opacity="0.9"/></linearGradient><linearGradient id="linear-gradient-2" x1="169.34" y1="134.53" x2="336.64" y2="134.53" xlink:href="#linear-gradient"/><linearGradient id="linear-gradient-3" x1="254.58" y1="151.44" x2="281.81" y2="151.44" gradientUnits="userSpaceOnUse"><stop offset="0.09" stop-color="#357b1c"/><stop offset="0.35" stop-color="#1a8c00"/><stop offset="0.61" stop-color="#047a00" stop-opacity="0.9"/><stop offset="1" stop-color="#08b800" stop-opacity="0.9"/></linearGradient><linearGradient id="linear-gradient-4" x1="288.03" y1="153.13" x2="318.35" y2="153.13" xlink:href="#linear-gradient-3"/><linearGradient id="linear-gradient-5" x1="322.91" y1="153.13" x2="350.38" y2="153.13" xlink:href="#linear-gradient-3"/></defs><title>sp2_2</title><path class="cls-1" d="M364.19,178" transform="translate(-169.34 -51.95)"/><path class="cls-2" d="M299.75,180.22a69.23,69.23,0,0,1-56.82,30c-38.54,0-69.79-32-69.79-71.42s31.25-71.42,69.79-71.42a68.27,68.27,0,0,1,23.17,4,63.7,63.7,0,0,0-15.41-1.88c-36,0-65.22,29.89-65.22,66.75S214.67,203,250.69,203A64.42,64.42,0,0,0,299.75,180.22Z" transform="translate(-169.34 -51.95)"/><path class="cls-3" d="M299.75,180.22a69.23,69.23,0,0,1-56.82,30c-38.54,0-69.79-32-69.79-71.42s31.25-71.42,69.79-71.42a68.27,68.27,0,0,1,23.17,4,63.7,63.7,0,0,0-15.41-1.88c-36,0-65.22,29.89-65.22,66.75S214.67,203,250.69,203A64.42,64.42,0,0,0,299.75,180.22Z" transform="translate(-169.34 -51.95)"/><path class="cls-4" d="M336.64,134.53c0,45.31-37.63,82.09-84.24,82.57a79.64,79.64,0,1,0-83.06-104.52C179.25,77.63,212.27,52,251.46,52,298.5,52,336.64,88.92,336.64,134.53Z" transform="translate(-169.34 -51.95)"/><path class="cls-5" d="M189.17,158.46c6.46,9.76,16.9,21.85,31.76,24.21,11.38,1.81,17.48-3.34,30.51-3.3,9.62,0,23.58,2.91,40.67,16.77C277,176.83,263.89,172,254.46,171.4c-10.06-.67-15,3.46-26.11,3.58C211.91,175.15,198.37,166.37,189.17,158.46Z" transform="translate(-169.34 -51.95)"/><path class="cls-5" d="M270.94,165.11c14.68-2.68,25.33-.55,32.93,2.61s10.3,6.76,17.56,9.12c12.28,4,24.31.78,32.6-2.6-14.41,11.58-24.61,12.8-31.58,11.29-8.15-1.77-11-7.46-21.27-13A64.35,64.35,0,0,0,270.94,165.11Z" transform="translate(-169.34 -51.95)"/><path class="cls-5" d="M322.88,186.09c-5.78,2.27-14.69,4.72-24.45,2.47C287.24,186,284,179.16,274.52,174c-21.95-11.95-47.87.71-48.09-.4-.12-.57,1.45-1.7,4.15-3a67.39,67.39,0,0,1,14.3-4.57c1.77-.36,3.59-.67,5.45-.89,8.13-1,20.77-1.53,30.51,4.31,5.53,3.32,8.89,7.66,18.41,11.66A65,65,0,0,0,322.88,186.09Z" transform="translate(-169.34 -51.95)"/><path class="cls-6" d="M244.88,166.06a67.39,67.39,0,0,0-14.3,4.57A31.59,31.59,0,0,0,237,158.85c1.14-4.41.83-9.57-1.86-13.38s-6.61-6.3-9-10.21a19.34,19.34,0,0,1-2.65-12,24.52,24.52,0,0,1,6-13.43,40.41,40.41,0,0,0-.25,12.32,24.38,24.38,0,0,0,3.84,10.17l.36.51c2,2.76,4.39,5.17,6.21,8a35.55,35.55,0,0,1,3.88,8.62A38.41,38.41,0,0,1,244.88,166.06Z" transform="translate(-169.34 -51.95)"/><path class="cls-5" d="M249.51,155.74" transform="translate(-169.34 -51.95)"/><path class="cls-6" d="M251.68,121.82A60.22,60.22,0,0,1,248,131a19,19,0,0,1-3.51,5.36,15.89,15.89,0,0,1-4.68,3.27,22.06,22.06,0,0,0-1.57-2,23.22,23.22,0,0,0-1.8-1.79c2.54-1.08,4-1.74,4-1.79h0a23.31,23.31,0,0,0,4.88-3.05A21.33,21.33,0,0,0,251.68,121.82Z" transform="translate(-169.34 -51.95)"/><path class="cls-6" d="M213.94,111.53c.25,2.69,1.26,9,6.33,13.53a17.47,17.47,0,0,0,2.82,2,15.28,15.28,0,0,1-.24-1.84A16.18,16.18,0,0,1,223,122c-.6-.44-1.47-1.1-2.49-1.93-.34-.28-2-1.66-2.89-2.47A14.74,14.74,0,0,1,213.94,111.53Z" transform="translate(-169.34 -51.95)"/><path class="cls-7" d="M262.55,114.13a6.21,6.21,0,0,1-3.54.56c-3.78.09-7.06,3.91-7.6,6.32l7.11-1.37-7,2.77a.06.06,0,0,0,0,0c1.12,1.76,8.59,1.73,11.87-2.69,2.54-3.42,1.53-8,1.23-9.22A5.07,5.07,0,0,1,262.55,114.13Z" transform="translate(-169.34 -51.95)"/><path class="cls-7" d="M241.6,104.85a6.25,6.25,0,0,1-3.55.51c-3.78,0-7.1,3.81-7.68,6.22l7.13-1.27L230.45,113v0c1.1,1.78,8.57,1.84,11.91-2.53,2.58-3.38,1.63-8,1.35-9.2A5.09,5.09,0,0,1,241.6,104.85Z" transform="translate(-169.34 -51.95)"/><path class="cls-7" d="M210.13,109.12c1.33.67,2.46,1.19,3.44,1.61h0a2.9,2.9,0,0,0-.24-3.12c-.8-1.13-2.07-1.17-3.31-1.61-1.42-.51-3.2-1.69-4.69-4.7-.92,4.81.15,8.8,2.84,10a6,6,0,0,0,4.44.15Z" transform="translate(-169.34 -51.95)"/><path class="cls-7" d="M259.76,127.26a4.34,4.34,0,0,1-2.6-.78c-2.61-1.23-6.09.56-7.25,2.22l5.3,1.39-5.69-.29s0,0,0,0c.19,1.73,5.29,4.26,9,2,2.85-1.74,3.67-5.6,3.86-6.61A4,4,0,0,1,259.76,127.26Z" transform="translate(-169.34 -51.95)"/><path class="cls-7" d="M246.8,121.57c.59,1,1.12,1.79,1.59,2.47h0a2.24,2.24,0,0,0,1.13-2.14c-.06-1.07-.88-1.63-1.51-2.43a6.64,6.64,0,0,1-1.13-5c-2.59,2.77-3.53,5.82-2.28,7.74a4.67,4.67,0,0,0,2.85,1.93Z" transform="translate(-169.34 -51.95)"/><path class="cls-7" d="M226.39,104.42c1.17,2.11,2.21,3.85,3.14,5.31h0c1.69-.64,2.57-2.74,2.55-4.41,0-2.25-1.71-3.48-3-5.21-1.44-2-2.75-5.21-2-10.62-5.67,5.61-7.89,12-5.41,16.07a9.81,9.81,0,0,0,5.83,4.29Z" transform="translate(-169.34 -51.95)"/><path class="cls-7" d="M210.26,117.16c1.44-.32,2.65-.63,3.68-.93h0a2.92,2.92,0,0,0-2.16-2.27c-1.33-.37-2.35.4-3.59.84-1.41.5-3.54.72-6.59-.68,2.32,4.31,5.67,6.73,8.53,6a6.07,6.07,0,0,0,3.54-2.69Z" transform="translate(-169.34 -51.95)"/><path class="cls-7" d="M249.54,115.55c.3.75.57,1.37.8,1.9h0a1.91,1.91,0,0,0,.44-1.56A4.39,4.39,0,0,0,250,114a7.87,7.87,0,0,1-.67-3.79c-1.09,2-1.43,4.26-.8,5.73a2.88,2.88,0,0,0,1.36,1.54Z" transform="translate(-169.34 -51.95)"/><path class="cls-7" d="M244.06,126.38c.3.5.57.91.81,1.25h0a1.13,1.13,0,0,0,.57-1.08c0-.54-.44-.82-.76-1.23a3.36,3.36,0,0,1-.57-2.53c-1.3,1.4-1.78,2.94-1.15,3.91a2.33,2.33,0,0,0,1.44,1Z" transform="translate(-169.34 -51.95)"/><path class="cls-7" d="M222.16,113.85c.5.88,1,1.61,1.35,2.22h0a2,2,0,0,0,.94-1.9c-.05-1-.75-1.46-1.28-2.18a6.18,6.18,0,0,1-1-4.48c-2.17,2.46-2.95,5.18-1.88,6.9a4,4,0,0,0,2.41,1.74Z" transform="translate(-169.34 -51.95)"/><path class="cls-7" d="M203,111.69c.3.5.56.91.8,1.25h0a1.14,1.14,0,0,0,.57-1.08c0-.55-.44-.83-.76-1.23a3.36,3.36,0,0,1-.57-2.53c-1.3,1.4-1.78,2.94-1.15,3.91a2.33,2.33,0,0,0,1.44,1Z" transform="translate(-169.34 -51.95)"/><path class="cls-7" d="M256.69,108.63c-.32.43-.86.35-1.23.39-1.41.15-1.92,2.23-1.66,3.5l2.42-.91-2.12,1.64h0c.76.89,3.57.66,4-1.73.3-1.84-1-4.22-1.29-4.82A2.57,2.57,0,0,1,256.69,108.63Z" transform="translate(-169.34 -51.95)"/><path class="cls-7" d="M233.65,118.1c-.44.24-.86,0-1.19-.12-1.25-.38-2.48,1.12-2.76,2.24l2.4.13-2.42.57v0c.3,1,2.77,1.81,4,0,1-1.39.83-3.77.78-4.38A2.28,2.28,0,0,1,233.65,118.1Z" transform="translate(-169.34 -51.95)"/><path class="cls-7" d="M280.38,135.77" transform="translate(-169.34 -51.95)"/><path class="cls-7" d="M240.86,85.59c-5.11,4.46-8.25,9.29-8.27,12.32,0,1.09,0,3.55,1.19,4.63a2,2,0,0,0,.44.3h0q2.92-7.45,5.84-14.89c-1.9,4.84-3.3,10.06-4.9,15,.05-.15,3-1.56,3.46-2.08,1.29-1.48,1.48-3.07,1.57-4.93C240.38,93,238.13,88,240.86,85.59Z" transform="translate(-169.34 -51.95)"/><path class="cls-7" d="M218.12,108.54a3.44,3.44,0,0,1-1.13,1.17,4.65,4.65,0,0,0-1.42,4.17l2.22-2.44-1.91,2.86h0c.74.26,3.35-1.85,3.63-4.19a3.89,3.89,0,0,0-1.38-3.3A2.2,2.2,0,0,1,218.12,108.54Z" transform="translate(-169.34 -51.95)"/><path class="cls-8" d="M281.8,141.54a9.2,9.2,0,0,1-.75,3.12.76.76,0,0,1,0,.11c-.05.12-.07.24-.12.35h-.06a5.13,5.13,0,0,1-4.55,2.78,7.46,7.46,0,0,1-5.49-3,8.53,8.53,0,0,1-1.4-4.2,8.6,8.6,0,0,1-4.44-5.28c0-.07,0-.14,0-.22a10.29,10.29,0,0,0-2.68,3.75c-.16,2.39,0,6.26,2.3,8.49,2.84,2.73,9.35,5.28,13.9,12.23a13.18,13.18,0,0,1,.09,14.78,14.68,14.68,0,0,1-12,5.34c-6.86-.32-12.2-5.45-11.92-11.47a9.08,9.08,0,0,1,.74-3.11.76.76,0,0,0,0-.11c0-.12.08-.24.13-.35h.06a5.53,5.53,0,0,1,4.55-2.77c1.24-.13,3.87.8,5.74,4.15s0,7.84,0,7.84-1.05-.06-3.27-2.36a5.17,5.17,0,0,1-1.68.59c1,2.71,3.19,4.66,5.85,4.78,1.72.08,5.78-2.13,7.36-6.05.16-2.39,0-6.26-2.3-8.49-2.84-2.74-9.35-5.28-13.9-12.23a13.18,13.18,0,0,1-.09-14.78,14.83,14.83,0,0,1,6.68-4.58,22.08,22.08,0,0,1,1.93-7.75s2.6.44,7.35,7.8C278.65,132.57,282,136.76,281.8,141.54Zm-17.87,29a11.81,11.81,0,0,0,1.72,2.54,16.61,16.61,0,0,0-1.46-2.9C264.1,170.28,264,170.41,263.93,170.52Zm5.61-40.44c-1.5-3.24-2.78-5.83-2.88-5.53a30.94,30.94,0,0,0,2.12,5.54Zm3.83,8.53c-.67-1.52-1.53-3.46-2.41-5.42a6.71,6.71,0,0,0-.89-.19c.92,2.06,1.86,4.1,2.56,5.64.13.09.22.13.36.23C273.11,138.77,273.25,138.7,273.37,138.61Z" transform="translate(-169.34 -51.95)"/><path class="cls-9" d="M299,161.1v14.8h2.74v2.3H288.31v-2.3h2.74V130.36h-3v-2.31l13.42.21c9.52,1.05,16.9,7.91,16.9,16.32C318.35,153.7,309.69,161.09,299,161.1Zm1.53-5.77.84-1.29s-2-4.66.95-8.21a20.05,20.05,0,0,1,8.53-5.55s.94,1.91-2.94,9.86c-2.47,5.09-5.15,4.55-5.15,4.55s-.33.59-.64,1.17c6.71-1.61,11.57-5.87,11.57-11,0-5.54-5.62-10.1-13.16-11.37Zm1.79-1.16s8.27-13.3,7.67-13-7.8,12.42-7.8,12.42Z" transform="translate(-169.34 -51.95)"/><path class="cls-10" d="M349.08,167.33v9.51H324V171h0a16.75,16.75,0,0,1,2.26-8.2c4.55-7.84,11.06-10.7,13.89-13.79,2.32-2.52,2.46-6.88,2.3-9.57-1.52-4.27-5.34-6.71-7.15-6.8a2.13,2.13,0,0,1,0,.22s2.77,1.12,2.88,3.21a7.16,7.16,0,0,1-1.56,4.35s-1.18-.43-2.66-4.35c-1-2.5.45-3.05.45-3.05s0-.1-.06-.23c-2.33.46-4.24,2.44-5.16,5.22a5.63,5.63,0,0,1,4.32,5.71c0,3.21-2.31,5.81-5.15,5.81a5.1,5.1,0,0,1-4.55-3.13h-.06c-.05-.13-.08-.27-.12-.39s0-.09,0-.13a11.68,11.68,0,0,1-.74-3.51,12.52,12.52,0,0,1,11.92-12.92c4.21-.22,8.66,1.56,12,6a16.44,16.44,0,0,1-.1,16.65c-4.55,7.83-11.06,10.7-13.9,13.79a9.42,9.42,0,0,0-2.09,5.09H343.7l.47-.78s-1.79-3.89.17-6.17a10.2,10.2,0,0,1,5.91-3S350.94,162.51,349.08,167.33Zm-13.87-34.08-.3-.18s1.67,7.05,1.83,6.79S335.21,133.25,335.21,133.25ZM344.74,170l.14.49s5.22-9,4.8-8.89S344.74,170,344.74,170Zm.47,1h.32a1.8,1.8,0,0,1-.29-.07A.24.24,0,0,0,345.21,171Z" transform="translate(-169.34 -51.95)"/></svg>